<svg width="25" height="30" fill="none" xmlns="http://www.w3.org/2000/svg"><path d="M19.3 9.33a1.09 1.09 0 11-2.18 0 1.09 1.09 0 012.17 0zM8.42 9.33a1.09 1.09 0 11-2.17 0 1.09 1.09 0 012.17 0zM8.42 22.35a1.09 1.09 0 11-2.17 0 1.09 1.09 0 012.17 0zM13.86 24.52a1.09 1.09 0 11-2.18 0 1.09 1.09 0 012.18 0zM5.16 15.77a1.09 1.09 0 11-2.18 0 1.09 1.09 0 012.18 0zM22.55 15.77a1.09 1.09 0 11-2.17 0 1.09 1.09 0 012.17 0zM19.3 22.35a1.09 1.09 0 11-2.18 0 1.09 1.09 0 012.17 0zM12 7.94a.78.78 0 111.57 0v8.18a.8.8 0 01-.8.8.76.76 0 01-.76-.75V7.94z" fill="#fff"/><path fill-rule="evenodd" clip-rule="evenodd" d="M17.92 27.06c.41-.2.9-.13 1.22.2l1.82 1.87a.68.68 0 00.98-.95l-1.36-1.4c-.42-.43-.36-1.14.1-1.55A12.75 12.75 0 0025 15.61C25 8.65 19.52 3 12.77 3 6 3 .54 8.65.54 15.61c0 3.82 1.64 7.24 4.23 9.55.45.4.51 1.11.1 1.55l-1.44 1.47a.68.68 0 10.97.95l1.88-1.93c.32-.33.82-.4 1.23-.2a11.88 11.88 0 0010.41.06zm-5.15-.23c6 0 10.87-5.02 10.87-11.22 0-6.19-4.87-11.2-10.87-11.2-6 0-10.88 5.01-10.88 11.2 0 6.2 4.87 11.22 10.88 11.22z" fill="#fff"/><path d="M12 4V0h1.5v4H12z" fill="#fff"/><path d="M5 .75c0-.41.34-.75.75-.75h14a.75.75 0 010 1.5h-14A.75.75 0 015 .75z" fill="#fff"/></svg>