<svg xmlns="http://www.w3.org/2000/svg">
  <style>
    :root > svg {
      display: none;
    }

    :root > svg:target {
      display: block;
    }
  </style>
  <svg viewBox="0 0 32 12" id="arrow">
    <line y1="6" x2="26" y2="6" stroke="black" stroke-width="2" />
    <path d="M32 6L25.25 11.1962L25.25 0.803848L32 6Z" fill="black" />
  </svg>
  <svg viewBox="0 0 60 60" id="features_1">
    <path
      d="M24.84.77a.95.95 0 00-.9-.77h-.01C18.99.03 6.98.92 2.13 8.38-.38 12.26-.6 17.29 1.5 23.34l.07.13a25.93 25.93 0 00-1.04 3.32c-.11.54.21 1.07.72 1.19l.2.02c.43 0 .81-.32.9-.79.03-.1 2.42-10.37 10.86-16.38.43-.3.55-.93.26-1.38a.9.9 0 00-1.3-.28c-4.79 3.4-7.74 8-9.47 11.65-1.24-4.57-.92-8.37.99-11.3C7.42 3.76 16.3 2.37 21.66 2.07c-1.16 1.8-2.41 5.1-2.41 10.93 0 3.12-.83 5.52-2.47 7.14-2.62 2.6-6.88 2.83-10 2.58-.51-.04-.96.38-1 .93-.04.55.35 1.03.86 1.07.63.05 1.3.08 1.99.08 3.17 0 6.86-.66 9.42-3.2 2.04-2 3.07-4.9 3.07-8.6 0-9.1 3.22-11.1 3.23-11.1.4-.21.6-.68.5-1.13z"
      fill="#fff" />
  </svg>
  <svg viewBox="0 0 60 60" id="features_2">
    <path
      d="M20.78 18.47c-1.71 0-3.1 1.48-3.1 3.3 0 1.83 1.4 3.3 3.1 3.3 1.7 0 3.08-1.47 3.08-3.3 0-1.82-1.38-3.3-3.08-3.3zm0 5.02c-.89 0-1.6-.77-1.6-1.71 0-.95.71-1.72 1.6-1.72.88 0 1.6.77 1.6 1.72 0 .94-.72 1.7-1.6 1.7zM11.6-.01c-1.75 0-3.18 1.52-3.18 3.4 0 1.89 1.43 3.41 3.19 3.41s3.18-1.52 3.18-3.4c0-1.89-1.42-3.41-3.18-3.41zm0 5.48c-1.06 0-1.93-.93-1.93-2.07 0-1.15.87-2.07 1.94-2.07 1.07 0 1.93.92 1.93 2.07 0 1.14-.86 2.07-1.93 2.07zM8.23 17.61c-1.3 0-2.34 1.12-2.34 2.5 0 1.39 1.04 2.5 2.34 2.5 1.3 0 2.34-1.11 2.34-2.5 0-1.38-1.05-2.5-2.34-2.5zM8 19.5c-.46 0 1.16 1.1 1.16.61 0-.49-1.62.39-1.16.39.46 0 1.06-.88 1.06-.39 0 .5-.6-.61-1.06-.61zM18.5 9.76s3.04-.84 6.18 1.5c.9.76 1.76 1.33 1.15 2.12-.34.34-.64.66-1.72-.53a6.92 6.92 0 00-5.61-1.44c-1.13.24-1.96.55-3.56 2.15a8.27 8.27 0 01-6.5 2.5c-2.52-.24-3.84-1.27-5.24-2.55-.3-.42-.3-.87-.12-1.13.17-.26.83-.52 1.2-.13.37.4 2.1 1.97 3.82 2.07 1.72.1 3.44.21 5.74-1.96 2.3-2.18 3.46-2.34 4.66-2.6z"
      fill="#fff" />
    <mask id="a" fill="#fff">
      <path
        d="M28.65 26.82V8.16c0-.58-.38-.65-.53-.66h-.5c-.5 0-.54.56-.54.74V26.84a2.68 2.68 0 01-.82 1.89c-.81.7-1.62.6-1.62.6s-20.18 0-20.66-.03a2.3 2.3 0 01-1.6-1c-.57-.8-.46-1.85-.46-1.85V8.3c0-.83-.67-.8-.67-.8h-.3c-.54 0-.6.58-.6.77v18.54c0 1.33.46 2.4 1.55 3.33 1.1.94 2.38.86 2.38.86h20.58c.86 0 1.98-.42 2.91-1.56.93-1.14.88-2.63.88-2.63z" />
    </mask>
    <path
      d="M28.65 26.82V8.16c0-.58-.38-.65-.53-.66h-.5c-.5 0-.54.56-.54.74V26.84a2.68 2.68 0 01-.82 1.89c-.81.7-1.62.6-1.62.6s-20.18 0-20.66-.03a2.3 2.3 0 01-1.6-1c-.57-.8-.46-1.85-.46-1.85V8.3c0-.83-.67-.8-.67-.8h-.3c-.54 0-.6.58-.6.77v18.54c0 1.33.46 2.4 1.55 3.33 1.1.94 2.38.86 2.38.86h20.58c.86 0 1.98-.42 2.91-1.56.93-1.14.88-2.63.88-2.63z"
      fill="#fff" />
    <path
      d="M28.65 26.82h-20v.38l.01.39 19.99-.77zM28.12 7.5l.71-19.99h-.71v20zm-1.04.74l-20-.15V8.24h20zm0 .06h-20 20zm0 18.54l-19.99-.76v.02l19.99.74zm-.82 1.89l13.03 15.16.44-.37.4-.4-13.87-14.4zm-1.62.6L26.9 9.46l-1.13-.13h-1.13v20zM3.98 29.3L.58 49.01l1.14.2 1.15.06L3.98 29.3zm-1.6-1l-16.35 11.52L2.39 28.3zm-.46-1.85l19.9 2.1.1-1.05v-1.05h-20zM1.25 7.5v20h.39l.38-.01L1.25 7.5zm-.9.78l-20-.29V8.28h20zM1.9 30.15l-13.02 15.18L1.9 30.15zm2.38.86V11h-.65l-.64.04 1.29 19.96zm23.5-1.56L43.25 42.1 27.78 29.45zm20.87-2.63V8.16h-40v18.66h40zm0-18.66a20.54 20.54 0 00-19.81-20.64L27.4 27.48A19.46 19.46 0 018.65 8.16h40zM28.12-12.5h-.5v40h.5v-40zm-.5 0A20.47 20.47 0 008.92-.38c-1.8 4-1.83 7.56-1.84 8.47l40 .3c0 .73-.02 3.91-1.67 7.6a19.47 19.47 0 01-17.8 11.51v-40zM7.08 8.24v.05h40v-.01-.01-.01-.01h-40zm0 .05v.01h40-40zm0 .02v10.51a8359.27 8359.27 0 010 7.25c0 .79 0 .45.01.01l39.97 1.52c.02-.51.02-1.37.02-1.45a1362.33 1362.33 0 000-7.34V8.3l-40 .02zm.01 17.79c.05-1.35.38-7.05 5.28-11.77l27.77 28.8a22.68 22.68 0 006.92-15.54L7.1 26.09zm6.13-12.54a17.51 17.51 0 0112.43-4.2 19.23 19.23 0 011.17.1h.06s.02 0-2.24 19.87a2063.4 2063.4 0 00-2.24 19.88h.05a14.8 14.8 0 001.25.1 21.38 21.38 0 005.56-.45A22.49 22.49 0 0039.3 43.9L13.22 13.56zm11.42 15.77v-20h-.02H23.77A17598.02 17598.02 0 015.1 9.31c-1.07 0-.61 0 0 .03L2.88 49.27c.97.06 7.17.06 11.6.06h10.16v-20zM7.38 9.6c.43.08 2.52.43 4.93 1.66 2.57 1.3 4.78 3.2 6.4 5.51l-32.67 23.07C-8.96 46.9-2.1 48.55.59 49L7.38 9.6zm11.34 7.18a17.34 17.34 0 013.13 11.4 21.7 21.7 0 01-.03.28v.08c0 .01 0 .02-19.9-2.08l-19.89-2.09v.09a31.34 31.34 0 00-.07.78 22.65 22.65 0 00.12 4.2 22.66 22.66 0 003.95 10.4l32.69-23.06zm3.2 9.68V8.3h-40v18.14h40zm0-18.14A20.74 20.74 0 002.28-12.47a20.44 20.44 0 00-1.76-.01H.5c-.01 0-.03 0 .75 19.98C2.02 27.5 2 27.5 2 27.5h-.07a28.65 28.65 0 01-1.65-.01 19.35 19.35 0 01-16-10.04 19.03 19.03 0 01-2.36-9.13h40zM1.25-12.49h-.3v40h.3v-40zm-.3 0A20.52 20.52 0 00-17.68-.66 21.17 21.17 0 00-19.64 8l40 .58c-.02.76-.05 4-1.8 7.72A19.44 19.44 0 01.95 27.5v-40zm-20.6 20.77V26.82h40v-.01-.02-.01-.01-.02-.02-.02-.02-.02-.01-.01-.02-.02-.01-.02-.01-.01-.02-.01-.02-.01-.02-.01-.02-.01-.02-.01-.02-.02-.02-.01-.02-.02-.02-.01-.02-.02-.02-.02-.02-.02-.02-.02-.02-.02-.02-.02V26v-.03-.02-.02-.02-.03-.02-.02-.02-.03-.02-.03-.02-.02-.03-.02-.03-.02-.03-.02-.03-.03-.02-.03-.03-.02-.03-.03-.03-.02-.03-.03-.03-.03-.03-.02-.03-.03-.03V25v-.03-.03-.03-.03-.03-.03-.04-.03-.03-.03-.03-.03-.04-.03-.03-.03-.04-.03-.03-.04-.03-.03-.04-.03-.04-.03-.04-.03-.04-.03-.04-.03-.04-.03-.04-.03-.04-.04-.03-.04-.04-.03-.04-.04-.04-.03-.04-.04-.04-.04-.03-.04-.04-.04-.04-.04-.04-.04-.04-.03-.04-.04-.04-.04-.04-.04-.04-.05-.04-.04-.04-.04-.04-.04-.04-.04-.05-.04-.04-.04-.04-.05-.04-.04-.04-.05-.04-.04-.04-.05-.04-.04-.05-.04-.04-.05-.04-.04-.05-.04-.05-.04-.04-.05V21v-.05-.04-.05-.04-.05-.04-.05-.04-.05-.04-.05-.04-.05-.04-.05-.04-.05-.05-.04-.05-.04V20v-.05-.04-.05-.04-.05-.05-.04-.05-.05-.04-.05-.05-.04-.05-.05-.04-.05-.05-.04-.05-.05-.04-.05-.05-.05-.04-.05-.05-.05-.04-.05-.05-.05-.04-.05-.05-.05-.04-.05-.05-.05-.04-.05-.05-.05-.04-.05-.05-.05-.05-.04-.05-.05-.05-.04-.05-.05-.05-.05-.04-.05-.05-.05-.05-.04-.05-.05-.05-.04-.05-.05-.05-.05-.04-.05-.05-.05-.04-.05-.05-.05-.05-.04-.05-.05-.05-.04-.05-.05-.04-.05-.05-.05-.04-.05-.05-.05-.04-.05-.05-.04-.05-.05-.04-.05-.05-.04-.05-.05-.04-.05-.05-.04-.05-.05-.04-.05-.04-.05-.05-.04-.05-.04-.05-.05-.04V14v-.04-.05-.04-.05-.04-.05-.04-.05-.04-.05-.04-.05-.04-.05-.04-.05-.04-.04-.05-.04-.05-.04V13v-.05-.04-.04-.05-.04-.04-.05-.04-.04-.04-.05-.04-.04-.04-.05-.04-.04-.04-.04-.04-.05-.04-.04-.04-.04-.04-.04-.04-.04-.04-.04-.04-.04-.04-.04-.04-.04-.04-.04-.04-.04-.04-.04-.04-.03-.04-.04-.04-.04-.03-.04-.04-.04-.03-.04-.04-.03-.04-.04-.03-.04-.03-.04-.03-.04-.04-.03-.04-.03-.03-.04-.03-.04-.03-.04-.03V10v-.04-.03-.03-.03-.04-.03-.03-.03-.03-.04-.03-.03-.03-.03-.03-.03-.03-.03-.03-.03-.03-.03-.03-.03-.03-.03-.02-.03-.03-.03-.03-.02-.03-.03-.02-.03-.03-.02-.03-.02-.03-.02-.03-.02-.03-.02-.03-.02-.02-.03-.02-.02-.03-.02-.02-.02-.03-.02-.02-.02-.02-.02-.02h-40zm0 18.54c0 7.06 2.92 13.7 8.53 18.51l26.05-30.35a15.62 15.62 0 014 5.37 15.72 15.72 0 011.42 6.47h-40zm8.53 18.51a23.59 23.59 0 0016.56 5.65h.06l.03-.01h.01c.01 0 .02 0-1.26-19.96C2.99 11.05 3 11.05 3 11.05h.04A537.28 537.28 0 014 11a17.44 17.44 0 013.65.36c1.88.4 4.64 1.34 7.29 3.6l-26.05 30.36zm15.4-14.32v20H24.91l-.1-40H4.28h-.01v20zM24.9 51c7.1-.02 13.8-3.34 18.35-8.9L12.3 16.8A16.17 16.17 0 0124.8 11l.11 40zm18.36-8.91a23.97 23.97 0 005.38-15.11 22.37 22.37 0 00-.02-.9v-.02-.02l-19.98.77-19.99.76v-.02-.02a23.42 23.42 0 01.01-1.62 16.04 16.04 0 013.6-9.11l31 25.29z"
      fill="#fff" mask="url(#a)" />
  </svg>
  <svg viewBox="0 0 60 60" id="features_3">
    <path fill-rule="evenodd" clip-rule="evenodd"
      d="M18.62.08a1 1 0 011.09.21c.9.91 2.1 2.88 3.06 5.92A42.6 42.6 0 0124.5 19a1 1 0 01-1 1H20v9a1 1 0 11-2 0V1a1 1 0 01.62-.92zM20 18h2.5a39.61 39.61 0 00-1.64-11.19 22.4 22.4 0 00-.86-2.3V18zM6 0a1 1 0 011 1v28a1 1 0 11-2 0V1a1 1 0 011-1z"
      fill="#fff" />
    <path fill-rule="evenodd" clip-rule="evenodd"
      d="M1.5 0a1 1 0 011 1v5.5c0 .56.2 1.32.7 1.92.48.56 1.31 1.08 2.8 1.08a1 1 0 110 2 5.41 5.41 0 01-4.33-1.8A5.07 5.07 0 01.5 6.5V1a1 1 0 011-1z"
      fill="#fff" />
    <path fill-rule="evenodd" clip-rule="evenodd"
      d="M10.5 0a1 1 0 00-1 1v5.5c0 .56-.2 1.32-.7 1.92C8.32 8.98 7.49 9.5 6 9.5a1 1 0 000 2c2.01 0 3.43-.73 4.33-1.8a5.07 5.07 0 001.17-3.2V1a1 1 0 00-1-1z"
      fill="#fff" />
  </svg>
  <svg viewBox="0 0 60 60" id="features_4">
    <path
      d="M19.3 9.33a1.09 1.09 0 11-2.18 0 1.09 1.09 0 012.17 0zM8.42 9.33a1.09 1.09 0 11-2.17 0 1.09 1.09 0 012.17 0zM8.42 22.35a1.09 1.09 0 11-2.17 0 1.09 1.09 0 012.17 0zM13.86 24.52a1.09 1.09 0 11-2.18 0 1.09 1.09 0 012.18 0zM5.16 15.77a1.09 1.09 0 11-2.18 0 1.09 1.09 0 012.18 0zM22.55 15.77a1.09 1.09 0 11-2.17 0 1.09 1.09 0 012.17 0zM19.3 22.35a1.09 1.09 0 11-2.18 0 1.09 1.09 0 012.17 0zM12 7.94a.78.78 0 111.57 0v8.18a.8.8 0 01-.8.8.76.76 0 01-.76-.75V7.94z"
      fill="#fff" />
    <path fill-rule="evenodd" clip-rule="evenodd"
      d="M17.92 27.06c.41-.2.9-.13 1.22.2l1.82 1.87a.68.68 0 00.98-.95l-1.36-1.4c-.42-.43-.36-1.14.1-1.55A12.75 12.75 0 0025 15.61C25 8.65 19.52 3 12.77 3 6 3 .54 8.65.54 15.61c0 3.82 1.64 7.24 4.23 9.55.45.4.51 1.11.1 1.55l-1.44 1.47a.68.68 0 10.97.95l1.88-1.93c.32-.33.82-.4 1.23-.2a11.88 11.88 0 0010.41.06zm-5.15-.23c6 0 10.87-5.02 10.87-11.22 0-6.19-4.87-11.2-10.87-11.2-6 0-10.88 5.01-10.88 11.2 0 6.2 4.87 11.22 10.88 11.22z"
      fill="#fff" />
    <path d="M12 4V0h1.5v4H12z" fill="#fff" />
    <path d="M5 .75c0-.41.34-.75.75-.75h14a.75.75 0 010 1.5h-14A.75.75 0 015 .75z" fill="#fff" />
  </svg>
</svg>
