<svg viewBox="0 0 80 80" xmlns="http://www.w3.org/2000/svg"><path d="M58.415 19.46h7.241a3.266 3.266 0 0 1 3.262 3.263v9.773a3.264 3.264 0 0 1-3.26 3.261h-.87v27.197a6.288 6.288 0 0 1-6.28 6.282h-36.97a6.289 6.289 0 0 1-6.282-6.282V35.757h-.865a3.266 3.266 0 0 1-3.263-3.262v-9.772a3.267 3.267 0 0 1 3.263-3.263h7.245a8.081 8.081 0 0 1-.469-8.445c2.117-3.91 7.024-5.371 10.938-3.255 3.757 2.034 6.425 6.363 7.918 9.383 1.493-3.02 4.161-7.349 7.917-9.383a8.015 8.015 0 0 1 6.144-.638 8.01 8.01 0 0 1 4.794 3.893 8.013 8.013 0 0 1 .639 6.144 8.095 8.095 0 0 1-1.102 2.301zm-33.29 0h13.219c-1.18-2.634-3.763-7.516-7.428-9.501a5.578 5.578 0 0 0-7.55 2.246 5.58 5.58 0 0 0 1.76 7.255zm29.795 0a5.535 5.535 0 0 0 2.2-3.014 5.53 5.53 0 0 0-.441-4.24 5.527 5.527 0 0 0-3.309-2.688 5.533 5.533 0 0 0-4.24.44c-3.665 1.985-6.248 6.868-7.428 9.502zM21.537 66.736h17.236V52.497H17.756v10.457a3.786 3.786 0 0 0 3.781 3.782zm40.751-3.782V52.497H41.273v14.239h17.235a3.786 3.786 0 0 0 3.78-3.782zM41.273 35.757v14.24h21.015v-14.24zm-2.5 14.24v-14.24H17.756v14.24zm-22.228-16.74h49.111c.42 0 .762-.341.762-.761v-9.773a.772.772 0 0 0-.762-.763H14.391a.773.773 0 0 0-.763.763v9.773c0 .42.342.762.763.762h2.155z" fill="#fff"/></svg>
