<svg width="58" height="62" fill="none" xmlns="http://www.w3.org/2000/svg"><path fill-rule="evenodd" clip-rule="evenodd" d="M54.01 12.92h-7.06A7.82 7.82 0 0036.75 1.6c-3.67 1.97-6.27 6.16-7.73 9.09-1.45-2.93-4.05-7.12-7.72-9.1a7.9 7.9 0 00-10.66 3.16 7.79 7.79 0 00.46 8.18H4.03a3.17 3.17 0 00-3.18 3.16v9.47a3.17 3.17 0 003.18 3.16h.84v26.35A6.11 6.11 0 0011 61.15h36.04a6.11 6.11 0 006.13-6.09V28.72h.85a3.17 3.17 0 003.18-3.17v-9.47A3.17 3.17 0 0054 12.92zm-3.28 29.59v-13.8H30.24v13.8h20.5zm-20.49 2.42h20.5v10.13a3.68 3.68 0 01-3.7 3.67h-16.8v-13.8zm-2.44-2.42v-13.8H7.31v13.8h20.5zM7.31 44.93h20.5v13.8H11a3.68 3.68 0 01-3.69-3.67V44.93zm20.08-32h-12.9a5.39 5.39 0 01-1.7-7.04 5.46 5.46 0 017.35-2.17c3.58 1.92 6.1 6.65 7.25 9.2zM37.9 3.71c-3.57 1.92-6.09 6.65-7.24 9.2h12.89a5.37 5.37 0 001.71-7.02 5.43 5.43 0 00-7.36-2.18zm-8.92 22.57H6.13h-.02-2.08a.74.74 0 01-.74-.74v-9.47c0-.4.34-.73.74-.73h49.98c.4 0 .75.33.75.73v9.47c0 .41-.34.74-.75.74H52a1.3 1.3 0 00-.08 0H29.06a1.3 1.3 0 00-.08 0z" fill="#fff"/></svg>