<?xml version="1.0" encoding="utf-8"?><svg viewBox="0 0 1000 1000" xmlns="http://www.w3.org/2000/svg" xmlns:xlink="http://www.w3.org/1999/xlink"><style>:root>svg{display:none}:root>svg:target{display:block}</style><svg viewBox="0 0 280 280" id="cat_big" xmlns="http://www.w3.org/2000/svg"><path d="M250.2 95.6a30.402 30.402 0 019-9.2c2-1.4 3.2-1.4 4.4 1.2 1.6 3.8 3 7.8 1.8 12a4.577 4.577 0 00.8 4.2c1.2 1.6 2.2 3.2 3.2 4.6a12.54 12.54 0 011.8 12.4 10.865 10.865 0 00-.4 6.2c.4 1.98.4 4.02 0 6a7.502 7.502 0 01-5.4 6.4 10.424 10.424 0 00-6.4 4 2.104 2.104 0 01-1.8 1c-2.4.4-8.4-5-8.4-7.4v-1.2c.2-7.2-.2-7.8-6.8-10.8a8.779 8.779 0 01-3.6-2.4c-1.2-1.6-2.8-1.4-4.6-.8-1.8.6-2.8 1.8-2.6 3.8.603 4.842.804 9.725.6 14.6.013.556.15 1.103.4 1.6 6.2 9 8.6 19.6 11.6 29.8 2.4 7.8 6.8 12 14.8 12.6 1.28.102 2.551.303 3.8.6a8.322 8.322 0 016.8 6.4c1.4 4.2.6 5.2-3.6 5.2h-13a6.481 6.481 0 01-4.6-1.6 23.413 23.413 0 00-6.8-4 14.525 14.525 0 01-6.8-5.2 57.213 57.213 0 00-8-9c-5.6-5.8-11.6-11.4-16.8-17.4a22.758 22.758 0 01-6.4-15.2c0-1.8-.4-2.6-2.4-1.8a3.865 3.865 0 01-2 .6c-5.6 0-8.4 3.4-10.4 8.4-1.8 4.2-4.2 8.2-6.4 12.4a20.786 20.786 0 00-2 8.4c0 4.8 1.2 6.4 5.6 8 2.8 1 5.4 2 6.8 4.8 1.6 3.2 1.2 4-2.2 4.2h-13.6a3.763 3.763 0 01-3.8-2.2l-3.6-6a12.103 12.103 0 01-1.4-10.8c.866-3.473.934-7.097.2-10.6a16.841 16.841 0 013.4-14c1.2-1.4 1.2-2-.8-2.4a100.105 100.105 0 01-23.6-8.2.197.197 0 01-.141-.059.197.197 0 01-.059-.141c-6.4-2.4-7.6-2-9.4 4.6-1.6 5.6-3.2 11.2-4.4 17-1.4 6.4.2 12.4 2.2 18.4.8 2.4 3.2 2.2 5 2.8 4 1.2 7.4 2.8 9 7 1.4 3.2 1.2 3.6-2.2 3.6-3.4 0-6.8-.2-10.4 0a13.278 13.278 0 01-8.4-2.8c-9.6-6.4-12.4-16.2-13.2-26.8-.4-6.6-4-11.8-8.2-16.8-.8-1-1.6-1.4-2.8-.6a88.649 88.649 0 01-13.4 6 53.421 53.421 0 00-24.4 17.6 21.26 21.26 0 00-4.4 10.2c-.6 3.6.4 5.2 4 6.2s5.4 3 5.8 6.8c.2 1.6-.4 2.4-2 2.4H53.4a3.308 3.308 0 01-2.6-1.6 17.121 17.121 0 01-3.8-11c-.105-6.91.498-13.813 1.8-20.6a12.594 12.594 0 016.8-9.6c11.8-5.6 18-16.2 23.6-27.2 1.2-2.2.2-2.6-1.8-2.4a32.94 32.94 0 00-15.4 6.4 141.256 141.256 0 00-16.6 14.2 33.343 33.343 0 01-20.6 9.8c-14.6.8-21.4-7.4-20.8-20.6a19.378 19.378 0 014.8-12.2 8.504 8.504 0 019-3c3 .8 3.8 2.4 2.6 5.4-.6 1.2-1.4 2.2-2 3.4a15 15 0 00-2 4c-2.2 6 .8 10.2 7 10.8 6.6.6 12-2.2 17-6.2a89.903 89.903 0 0016-16.6A41.579 41.579 0 0185.2 97c4.6-.6 8.6-2.6 13-3.8a83.02 83.02 0 0125.4-3.6 26.001 26.001 0 0011.6-2.2c9.8-4 20-4 30.2-2 8 1.6 16 3.6 23.8 5.6a33.16 33.16 0 0014-.4 135.58 135.58 0 0126.8-4 36.32 36.32 0 0117.2 3.4c4 1.8 4 1.8 3 5.6z"/></svg><svg viewBox="0 0 280 280" id="cat_slim" xmlns="http://www.w3.org/2000/svg"><path d="M179.68 29h-.76a6.956 6.956 0 00-2.92 3.147 30.524 30.524 0 00-2.58 6.75 3.214 3.214 0 01-1.022 1.827c-.535.48-1.217.77-1.938.825a14.755 14.755 0 00-6.105 2.543 14.57 14.57 0 00-4.355 4.94 53.806 53.806 0 00-3.7 7.917c-2.84 7.284-5.02 14.806-7.7 22.15-1.26 3.344-1.32 3.344-5.12 3.344-4.54 0-4.22-.692-4.28 4.256 0 1.564.48 2.355 2.16 2.276.52 0 1.3-.257 1.5.416.2.673-.48.97-.88 1.366a18.05 18.05 0 01-8.66 4.83c-3.8 1.009-7.68 1.8-11.38 3.028-9.5 3.147-18.28 7.541-25.12 14.984a55.305 55.305 0 00-9.48 15.518c-7.34 17.102-10.9 35.114-13.66 53.305-1.3 8.531-2.22 17.102-2.92 25.732C70.4 212.39 70 216.685 70 221h66.66a4.278 4.278 0 00-.46-2.534 9.9 9.9 0 00-3.025-4.032 10.039 10.039 0 00-4.635-2.044c-1.4-.317-1.56-.733-.7-1.821a20.41 20.41 0 003.18-6.136c3.26-9.521 4.52-19.458 6.1-29.295a58.966 58.966 0 016.88-21.437 42.908 42.908 0 0111.18-12.609c1.66-1.247 1.72-1.247 2 .871.2 1.406.24 2.851.34 4.276.6 9.351.48 18.734-.36 28.067a120.805 120.805 0 00-.3 21.774A147.413 147.413 0 00161.4 221H188a10.665 10.665 0 00-2.858-5.7 10.85 10.85 0 00-5.622-3.088 18.173 18.173 0 00-7.52.395c-1.2.278-1.7 0-1.8-1.286a110.44 110.44 0 012-31.314 348.463 348.463 0 006.12-35.985 34.886 34.886 0 014.56-13.856c2.38-4.196 4.46-8.551 6.8-12.767a11.506 11.506 0 00.84-10.273c-.54-1.405-1.06-2.83-1.72-4.176-2-3.86-4-7.68-5.84-11.58-.98-1.98-.76-2.217 1.42-2.276 3.26 0 3.26 0 3.32-3.246V84.54c0-1.365-.52-2.117-2-1.979h-3.04c-1.38 0-1.78-.574-1.44-1.98a12.342 12.342 0 013.822-5.882 12.54 12.54 0 016.438-2.886 44.446 44.446 0 0113.24.851 2.017 2.017 0 001.512-.126c.468-.237.823-.647.988-1.14.8-1.98 1.68-3.96 2.58-5.939a1.96 1.96 0 00-.2-2.256c-6.4-8.037-13.34-15.538-22.8-20.348a2.973 2.973 0 01-1.165-.887 2.939 2.939 0 01-.595-1.33 38.465 38.465 0 00-2.54-8.235A6.944 6.944 0 00179.68 29z"/></svg><svg viewBox="0 0 26 26" id="check_mark" xmlns="http://www.w3.org/2000/svg"><path d="M11 17.718L5.3 11.27l-1.05 1.187L11 20.094 22.25 7.366 21.2 6.094 11 17.718z" fill="#68B738"/></svg><svg viewBox="0 0 40 40" id="check_radio" xmlns="http://www.w3.org/2000/svg"><circle cx="20" cy="20" r="9" fill="#68B738"/></svg><svg viewBox="0 0 20 20" id="email" xmlns="http://www.w3.org/2000/svg"><path fill-rule="evenodd" d="M10 13.5l-9-7V4h18v2.5l-9 7zm8-7.49l-8 6.223-8-6.222V5h16v1.01zM1 9v8h18V9h-1v7H2V9H1z"/></svg><svg viewBox="0 0 13 20" id="facebook" xmlns="http://www.w3.org/2000/svg"><path d="M11.5.83H8.75c-1.22 0-2.38.48-3.24 1.32a4.45 4.45 0 00-1.34 3.18v2.7H1.42v3.59h2.75v7.19h3.66v-7.2h2.75l.92-3.59H7.83v-2.7a.904.904 0 01.92-.89h2.75V.83z" fill="none"/></svg><svg viewBox="0 0 36 36" id="features_img1" xmlns="http://www.w3.org/2000/svg"><path d="M30.844 4.767c-.1-.45-.48-.767-.912-.767h-.005c-4.938.033-16.945.916-21.793 8.38-2.518 3.878-2.735 8.913-.644 14.965.016.047.048.079.07.122-.747 1.973-1.037 3.286-1.044 3.323-.11.54.214 1.072.72 1.188a.88.88 0 00.197.022c.433 0 .822-.321.916-.79.02-.102 2.409-10.373 10.854-16.378.431-.306.547-.927.26-1.387-.288-.46-.87-.585-1.3-.277-4.79 3.405-7.739 8.008-9.473 11.656-1.242-4.578-.916-8.377.986-11.305 3.743-5.764 12.622-7.154 17.982-7.448-1.153 1.801-2.413 5.103-2.413 10.929 0 3.12-.83 5.522-2.465 7.14-2.62 2.591-6.88 2.834-9.993 2.584-.518-.045-.967.371-1.006.922-.04.55.347 1.03.863 1.072.623.051 1.29.082 1.981.082 3.17 0 6.87-.663 9.43-3.194 2.034-2.011 3.065-4.906 3.065-8.605 0-9.099 3.216-11.096 3.232-11.105.39-.209.594-.677.492-1.129z" fill="#fff"/></svg><svg viewBox="0 0 36 36" id="features_img2" xmlns="http://www.w3.org/2000/svg"><path d="M14.607.99c-1.76 0-3.188 1.525-3.188 3.407 0 1.882 1.427 3.407 3.188 3.407 1.76 0 3.187-1.524 3.187-3.407S16.367.99 14.607.99zm0 5.476c-1.07 0-1.936-.926-1.936-2.07 0-1.142.866-2.069 1.935-2.069 1.07 0 1.936.927 1.936 2.07 0 1.143-.866 2.069-1.936 2.069zm9.17 13.007c-1.707 0-3.09 1.479-3.09 3.301 0 1.824 1.384 3.302 3.09 3.302 1.705 0 3.087-1.478 3.087-3.302 0-1.823-1.383-3.3-3.088-3.3zm0 5.013c-.885 0-1.602-.766-1.602-1.71 0-.947.717-1.713 1.601-1.713s1.602.766 1.602 1.712c0 .945-.718 1.711-1.602 1.711zM8.885 21.113c0-1.383 1.047-2.503 2.34-2.503 1.295 0 2.342 1.12 2.342 2.503s-1.047 2.503-2.341 2.503c-1.294 0-2.341-1.12-2.341-2.503zM21.5 10.763s3.04-.839 6.178 1.494c.083.07.166.137.247.204.805.663 1.462 1.204.905 1.918l-.01.011c-.34.336-.639.633-1.706-.535-1.054-.76-2.72-1.898-5.614-1.442-1.128.237-1.961.551-3.555 2.15-1.594 1.598-3.973 2.725-6.498 2.489-2.525-.236-3.849-1.258-5.246-2.542-.294-.42-.294-.865-.123-1.127.171-.262.833-.524 1.201-.132.368.394 2.109 1.966 3.825 2.07 1.717.105 3.433.21 5.737-1.965 2.19-2.064 3.339-2.31 4.477-2.554l.182-.04zm10.146-1.606v18.659s.058 1.497-.872 2.636c-.93 1.138-2.057 1.552-2.916 1.555-.858.002-20.581.002-20.581.002s-1.281.083-2.375-.856c-1.095-.94-1.548-2-1.548-3.337V9.279c.003-.188.052-.776.588-.776h.307s.675-.027.675.812v18.133s-.111 1.049.453 1.848c.564.799 1.226.943 1.606 1.009.478.026 20.655.026 20.655.026s.809.092 1.617-.603c.748-.72.81-1.559.822-1.887.01-.253.004-11.742.002-16.889v-1.71c0-.182.044-.739.537-.739h.506c.15.005.524.077.524.655z" fill="#fff"/></svg><svg viewBox="0 0 36 36" id="features_img3" xmlns="http://www.w3.org/2000/svg"><path d="M7.5 3a1 1 0 011 1v5.5c0 .557.192 1.315.7 1.917.36.424.918.82 1.8.993V4a1 1 0 112 0v8.41c.882-.173 1.44-.57 1.8-.993.508-.602.7-1.36.7-1.917V4a1 1 0 112 0v5.5c0 .943-.308 2.185-1.174 3.208-.74.874-1.834 1.526-3.326 1.727V32a1 1 0 11-2 0V14.435c-1.493-.2-2.586-.853-3.326-1.727A5.068 5.068 0 016.5 9.5V4a1 1 0 011-1zm18.207.293A1 1 0 0024 4v28a1 1 0 102 0v-9h3.5a1 1 0 001-1c0-5.492-.763-9.72-1.734-12.79-.962-3.04-2.15-5.009-3.059-5.917zM28.491 21H26V7.519c.288.652.58 1.416.86 2.295.845 2.674 1.545 6.37 1.631 11.186z" fill="#fff"/></svg><svg viewBox="0 0 36 36" id="features_img4" xmlns="http://www.w3.org/2000/svg"><path d="M30 18.614c0-6.713-5.085-12.201-11.5-12.592V4.5h6.25a.75.75 0 000-1.5h-14a.75.75 0 000 1.5H17v1.524c-6.398.41-11.464 5.89-11.464 12.59 0 3.815 1.641 7.234 4.236 9.547.452.403.513 1.11.09 1.544l-1.434 1.473a.682.682 0 10.976.951l1.88-1.93a1.058 1.058 0 011.226-.191 11.878 11.878 0 005.258 1.221c1.841 0 3.587-.42 5.154-1.17a1.058 1.058 0 011.216.195l1.826 1.875a.682.682 0 00.977-.95l-1.357-1.394c-.426-.438-.361-1.15.098-1.552C28.324 25.92 30 22.47 30 18.614zm-1.36 0c0 6.193-4.867 11.213-10.872 11.213S6.895 24.807 6.895 18.614c0-6.192 4.868-11.212 10.873-11.212 6.005 0 10.873 5.02 10.873 11.212zm-11.632.552c0 .42.34.76.76.76.443 0 .803-.36.803-.803V10.94a.781.781 0 00-1.563 0v8.225zm-4.677-5.751a1.086 1.086 0 10-1.087-1.085c0 .6.487 1.085 1.087 1.085zm10.873 0a1.086 1.086 0 10-1.087-1.085c0 .6.487 1.085 1.087 1.085zm-9.786 11.936a1.086 1.086 0 11-2.177-.002 1.086 1.086 0 012.177.002zm4.35 3.256a1.086 1.086 0 10-1.088-1.085c0 .599.487 1.085 1.088 1.085zm-7.612-9.832a1.086 1.086 0 11-2.177-.002 1.086 1.086 0 012.177.002zm16.31 1.085a1.086 1.086 0 10-1.087-1.085c0 .6.487 1.085 1.087 1.085zm-2.175 5.491a1.086 1.086 0 11-2.177-.002 1.086 1.086 0 012.177.002z" fill="#fff"/></svg><svg viewBox="0 0 80 80" id="gift" xmlns="http://www.w3.org/2000/svg"><path d="M58.415 19.46h7.241a3.266 3.266 0 013.262 3.263v9.773a3.264 3.264 0 01-3.26 3.261h-.87v27.197a6.288 6.288 0 01-6.28 6.282h-36.97a6.289 6.289 0 01-6.282-6.282V35.757h-.865a3.266 3.266 0 01-3.263-3.262v-9.772a3.267 3.267 0 013.263-3.263h7.245a8.081 8.081 0 01-.469-8.445c2.117-3.91 7.024-5.371 10.938-3.255 3.757 2.034 6.425 6.363 7.918 9.383 1.493-3.02 4.161-7.349 7.917-9.383a8.015 8.015 0 016.144-.638 8.01 8.01 0 014.794 3.893 8.013 8.013 0 01.639 6.144 8.095 8.095 0 01-1.102 2.301zm-33.29 0h13.219c-1.18-2.634-3.763-7.516-7.428-9.501a5.578 5.578 0 00-7.55 2.246 5.58 5.58 0 001.76 7.255zm29.795 0a5.535 5.535 0 002.2-3.014 5.53 5.53 0 00-.441-4.24 5.527 5.527 0 00-3.309-2.688 5.533 5.533 0 00-4.24.44c-3.665 1.985-6.248 6.868-7.428 9.502zM21.537 66.736h17.236V52.497H17.756v10.457a3.786 3.786 0 003.781 3.782zm40.751-3.782V52.497H41.273v14.239h17.235a3.786 3.786 0 003.78-3.782zM41.273 35.757v14.24h21.015v-14.24zm-2.5 14.24v-14.24H17.756v14.24zm-22.228-16.74h49.111c.42 0 .762-.341.762-.761v-9.773a.772.772 0 00-.762-.763H14.391a.773.773 0 00-.763.763v9.773c0 .42.342.762.763.762h2.155z" fill="#fff"/></svg><svg viewBox="0 0 27 34" id="htmlacademy_logo" xmlns="http://www.w3.org/2000/svg"><path d="M13.643.016L13.5 0 0 1.407v24.606L13.5 34 27 26.013V1.407L13.643.016zm11.591 25L13.5 31.956 1.766 25.015V14.93l11.685 6.916.02 1.253-8.017-4.743-.011 1.225 8.046 4.809.02 1.286-8.045-4.758-.01 1.226L13.5 26.95l8.124-4.833V16.91l3.62-2.15-.01 10.256zm0-11.564l-3.22 1.88-1.482.875-7.065-4.187-.011 1.225 6.04 3.573-.053.031-.13.076-.86.492-4.986-2.948-.011 1.225 3.936 2.328-.933.61-.021.012-2.971-1.742-.011 1.225 1.947 1.135-1.988 1.186-11.618-6.872 11.638-6.958 11.8 6.834zm0-1.225L13.44 5.31 1.766 12.22V2.99L13.5 1.764 25.234 2.99v9.237z"/></svg><svg viewBox="0 0 1000 1000" id="icon" xmlns="http://www.w3.org/2000/svg"><path d="M0 0v1000h1000V0z"/></svg><svg viewBox="0 0 32 12" id="icon_arrow" xmlns="http://www.w3.org/2000/svg"><path stroke="#000" stroke-width="2" d="M0 6h26"/><path d="M32 6l-6.75 5.196V.804L32 6z"/></svg><svg viewBox="0 0 16 16" id="instagram" xmlns="http://www.w3.org/2000/svg"><path d="M7.98.06c1.34 0 2.43.02 3.27.05a6 6 0 011.92.37 3.99 3.99 0 012.31 2.32 6 6 0 01.38 1.92 91.88 91.88 0 010 6.53 6 6 0 01-.38 1.92 3.99 3.99 0 01-2.3 2.31 6 6 0 01-1.93.38 91.88 91.88 0 01-6.53 0 6 6 0 01-1.92-.38 3.99 3.99 0 01-2.32-2.3 6 6 0 01-.37-1.93 91.73 91.73 0 010-6.53A6 6 0 01.48 2.8 3.99 3.99 0 012.8.48 6 6 0 014.72.11C5.56.08 6.65.06 7.98.06zm0 1.03c-1.38 0-2.51.02-3.39.05-.56.02-1.08.12-1.56.3-.75.31-1.28.84-1.6 1.6-.17.47-.27 1-.29 1.55a98.83 98.83 0 000 6.79c.02.56.12 1.08.3 1.56.31.75.84 1.28 1.6 1.6.47.17 1 .27 1.55.29a98.66 98.66 0 006.79 0 5.01 5.01 0 001.56-.3 2.85 2.85 0 001.6-1.6c.17-.47.27-1 .29-1.55a98.66 98.66 0 000-6.79 5.01 5.01 0 00-.3-1.56 2.85 2.85 0 00-1.6-1.6c-.47-.17-1-.27-1.55-.29-.88-.03-2.01-.05-3.4-.05zm0 10.07c.88 0 1.63-.31 2.25-.93.62-.62.93-1.37.93-2.25 0-.87-.31-1.62-.93-2.24a3.06 3.06 0 00-2.25-.93c-.87 0-1.62.31-2.24.93a3.06 3.06 0 00-.93 2.24c0 .88.31 1.63.93 2.25.62.62 1.37.93 2.24.93zm0-7.24c1.13 0 2.09.4 2.88 1.19.8.8 1.19 1.75 1.19 2.87 0 1.13-.4 2.09-1.2 2.88-.78.8-1.74 1.19-2.87 1.19-1.12 0-2.08-.4-2.87-1.2a3.92 3.92 0 01-1.19-2.87c0-1.12.4-2.08 1.19-2.87.8-.8 1.75-1.19 2.87-1.19zm5.2-.15a.95.95 0 01-.97.94.9.9 0 01-.67-.28.9.9 0 01-.27-.66.95.95 0 01.93-.97c.26 0 .49.1.68.29.2.19.3.42.3.68z"/></svg><svg viewBox="0 0 24 18" id="menu_button" xmlns="http://www.w3.org/2000/svg"><path stroke="#000" stroke-width="1.5" d="M0 1.25h24m-24 8h24m-24 8h24"/></svg><svg fill="none" viewBox="0 0 20 20" id="menu_closed_button" xmlns="http://www.w3.org/2000/svg"><path transform="scale(.97098 1.0282) rotate(-45 24.51 7.237)" stroke="#000" stroke-width="1.5" d="M0-.75h24.758"/><path transform="matrix(.68659 .72705 -.68659 .72705 1 2)" stroke="#000" stroke-width="1.5" d="M0-.75h24.758"/></svg><svg viewBox="0 0 20 20" id="phone" xmlns="http://www.w3.org/2000/svg"><path fill-rule="evenodd" d="M14.646 7.146a.5.5 0 01.708 0l2.5 2.5a.5.5 0 010 .708l-2.5 2.5a.5.5 0 01-.708-.708l1.647-1.646H9a.5.5 0 010-1h7.293l-1.647-1.646a.5.5 0 010-.708zM3.48 3.48C3.174 3.783 3 4.163 3 4.5v11c0 .337.174.717.479 1.021.304.305.684.479 1.021.479H7v-4H4.5a.5.5 0 01-.5-.5v-5a.5.5 0 01.5-.5H7V3H4.5c-.337 0-.717.174-1.021.479zM7.5 2a.5.5 0 01.5.5v5a.5.5 0 01-.5.5H5v4h2.5a.5.5 0 01.5.5v5a.5.5 0 01-.5.5h-3c-.663 0-1.283-.326-1.729-.771C2.326 16.783 2 16.163 2 15.5v-11c0-.663.326-1.283.771-1.729C3.217 2.326 3.837 2 4.5 2h3z"/></svg><svg viewBox="0 0 30 30" id="plus" xmlns="http://www.w3.org/2000/svg"><path d="M15 0v30m15-15H0" stroke="#D3D3D3" stroke-width="2" vector-effect="non-scaling-stroke"/></svg><svg viewBox="0 0 23 13" id="vkontakte" xmlns="http://www.w3.org/2000/svg"><path d="M.07 2c0-.63.42-.96 1.27-1.01L4.6 1c.22 0 .37.1.44.28.33.91.7 1.7 1.13 2.37.41.66.95 1.43 1.63 2.3a.3.3 0 00.28.16c.1 0 .18-.05.24-.13l.07-.2.02-3.17c0-.22-.06-.36-.19-.43A1.9 1.9 0 007.53 2c-.26-.04-.4-.17-.4-.4 0-.05.02-.09.03-.11C7.46.7 8.34.3 9.8.3L11 .29c.56 0 1.02.12 1.38.35.37.23.55.6.55 1.1v4.15c.1.06.2.09.28.09.22 0 .41-.11.57-.33 1.6-1.88 2.48-3.13 2.6-3.77a1.29 1.29 0 01.55-.57c.24-.13.44-.22.62-.27a.5.5 0 01.2-.04h3.39l.21.02c.3 0 .52.12.68.35.06.07.1.15.12.24a1.57 1.57 0 01.06.4v.13c-.1.5-.36 1.03-.78 1.6-.41.57-.94 1.18-1.59 1.84-.64.66-1.04 1.09-1.2 1.3-.13.14-.2.28-.2.4 0 .1.06.2.18.33l3.2 3.36c.17.2.26.41.26.64 0 .28-.13.51-.4.7-.26.18-.57.28-.94.3l-.37.03h-3.33a.8.8 0 00-.08 0 .8.8 0 01-.1.02c-.31 0-.61-.12-.89-.35l-2.06-2.16a1.1 1.1 0 00-.3-.24 25.6 25.6 0 00-.44 1.63l-.07.31c-.14.43-.45.68-.92.77l-.3.02H9.74a5.92 5.92 0 01-3.62-1.4 14.5 14.5 0 01-3.25-3.59A32.9 32.9 0 01.18 2.52 1.24 1.24 0 01.07 2zm13.15 4.73c-.3 0-.58-.07-.83-.21-.25-.14-.37-.33-.37-.58v-4.2c0-.25-.07-.42-.22-.52-.15-.1-.4-.16-.77-.16L9.8 1.1c-.63 0-1.1.09-1.43.27.65.26.97.67.97 1.24v3.22c-.03.3-.18.56-.44.76-.26.2-.55.3-.88.3-.43 0-.77-.17-1-.53a18.47 18.47 0 01-2.54-4.1l-.2-.47-2.9-.02c-.2 0-.3.01-.33.03-.02.02-.03.07-.03.16 0 .1.02.22.04.34l.46 1.03a23.46 23.46 0 004 6.25c1.44 1.53 2.85 2.29 4.23 2.29h2.2c.08 0 .15-.02.19-.07a.52.52 0 00.1-.24l.05-.19.42-1.6c.11-.22.22-.37.3-.44.16-.14.35-.2.57-.2.35 0 .71.17 1.08.53l1.86 1.97c.11.16.24.24.37.24h3.6c.45 0 .67-.1.67-.28a.31.31 0 00-.07-.18l-3.17-3.3a1.17 1.17 0 01-.38-.83c0-.3.12-.57.35-.84.2-.25.56-.65 1.11-1.22a28.2 28.2 0 001.43-1.6c.41-.48.68-.93.81-1.33l.07-.24a.24.24 0 01-.02-.12l-.02-.14h-3.44c-.22.07-.4.18-.53.33l-.13.35c-.36.84-1.32 2.14-2.86 3.9-.31.24-.67.36-1.08.36z"/></svg></svg>